:FULLY-SPECIFIED
:FORCE-ALL-JOINTS-BE-3DOF
:DEGREES
917
root 2.63121 15.9751 32.2702 1.84281 10.585 363.092
lfemur -9.43576 11.4274 -7.70807
ltibia 24.1476 0 0
lfoot -22.3863 -15.3705 0
ltoes -8.50996 0 0
rfemur -29.0731 -10.0768 -5.13429
rtibia 65.5327 0 0
rfoot 0.0258306 -10.4057 0
rtoes -10.0141 0 0
lowerback 0.175983 -1.92022 -2.94882
upperback -0.38553 -2.58944 -5.26449
thorax -0.484512 -1.29453 -3.73708
lowerneck -7.24059 -3.01085 0.402933
upperneck 3.91881 -4.34508 4.8131
head 2.66633 -1.99821 1.2639
lclavicle -4.86059e-15 1.73905e-14 0
lhumerus -53.8645 -41.035 108.375
lradius 59.2649 0 0
lwrist 19.634 0 0
lhand 36.8673 23.279 0
lfingers 7.12502 0 0
lthumb 59.6016 36.3182 0
rclavicle -4.86059e-15 1.73905e-14 0
rhumerus -35.5777 28.6179 -56.4726
rradius 101.295 0 0
rwrist -11.2643 0 0
rhand 16.1006 -11.31 0
rfingers 7.12502 0 0
rthumb 40.8463 -755.943 0
918
root 2.56954 15.9505 32.3075 2.06773 9.75335 363.309
lfemur -8.44168 10.4913 -7.09228
ltibia 22.7148 0 0
lfoot -22.7619 -16.3254 0
ltoes -9.40079 0 0
rfemur -28.9207 -9.7992 -5.57987
rtibia 64.0856 0 0
rfoot -0.538272 -9.9633 0
rtoes -12.5604 0 0
lowerback -0.087879 -1.84566 -2.88833
upperback -0.457138 -2.47912 -5.4723
thorax -0.419672 -1.24085 -3.99812
lowerneck -7.24483 -2.80541 0.519459
upperneck 3.86633 -4.07864 4.80727
head 2.63878 -1.86509 1.25467
lclavicle -3.9845e-15 1.86473e-14 0
lhumerus -54.0651 -41.0848 108.334
lradius 59.1142 0 0
lwrist 20.046 0 0
lhand 37.2673 23.6903 0
lfingers 7.12502 0 0
lthumb 59.9448 36.3792 0
rclavicle -3.9845e-15 1.86473e-14 0
rhumerus -35.0117 30.0688 -54.6969
rradius 100.719 0 0
rwrist -11.468 0 0
rhand 16.5392 -11.3495 0
rfingers 7.12502 0 0
rthumb 41.2585 -755.854 0
919
root 2.50786 15.9258 32.3448 2.29265 8.92166 363.526
lfemur -7.44761 9.55526 -6.47648
ltibia 21.282 0 0
lfoot -23.1375 -17.2803 0
ltoes -10.2916 0 0
rfemur -28.7684 -9.52159 -6.02545
rtibia 62.6385 0 0
rfoot -1.10238 -9.52091 0
rtoes -15.1067 0 0
lowerback -0.351741 -1.77109 -2.82785
upperback -0.528747 -2.3688 -5.6801
thorax -0.354831 -1.18717 -4.25915
lowerneck -7.24908 -2.59997 0.635984
upperneck 3.81384 -3.8122 4.80145
head 2.61123 -1.73196 1.24545
lclavicle -3.1084e-15 1.99041e-14 0
lhumerus -54.2658 -41.1346 108.292
lradius 58.9635 0 0
lwrist 20.4581 0 0
lhand 37.6673 24.1015 0
lfingers 7.12502 0 0
lthumb 60.288 36.4401 0
rclavicle -3.1084e-15 1.99041e-14 0
rhumerus -34.4458 31.5197 -52.9213
rradius 100.143 0 0
rwrist -11.6717 0 0
rhand 16.9778 -11.3889 0
rfingers 7.12502 0 0
rthumb 41.6707 -755.765 0
920
root 2.44619 15.9011 32.3821 2.51756 8.08997 363.742
lfemur -6.45354 8.61917 -5.86069
ltibia 19.8493 0 0
lfoot -23.513 -18.2352 0
ltoes -11.1825 0 0
rfemur -28.6161 -9.24398 -6.47103
rtibia 61.1914 0 0
rfoot -1.66648 -9.07852 0
rtoes -17.653 0 0
lowerback -0.615602 -1.69653 -2.76737
upperback -0.600356 -2.25848 -5.88791
thorax -0.289991 -1.13349 -4.52018
lowerneck -7.25332 -2.39453 0.75251
upperneck 3.76136 -3.54576 4.79563
head 2.58368 -1.59884 1.23622
lclavicle -2.23231e-15 2.11609e-14 0
lhumerus -54.4665 -41.1844 108.251
lradius 58.8127 0 0
lwrist 20.8702 0 0
lhand 38.0674 24.5127 0
lfingers 7.12502 0 0
lthumb 60.6312 36.501 0
rclavicle -2.23231e-15 2.11609e-14 0
rhumerus -33.8798 32.9706 -51.1456
rradius 99.5668 0 0
rwrist -11.8754 0 0
rhand 17.4165 -11.4284 0
rfingers 7.12502 0 0
rthumb 42.083 -755.676 0
